<svg xmlns="http://www.w3.org/2000/svg" xmlns:svg="http://www.w3.org/2000/svg" id="svg2" width="783.478" height="321.091" version="1.1" viewBox="0 0 734.51 301.022"><metadata id="metadata7"/><g id="layer1" transform="translate(71.951068,-314.70811)"><rect style="fill:#fff;fill-opacity:1;stroke:#446cb3;stroke-width:1;stroke-miterlimit:4;stroke-dasharray:none;stroke-opacity:1" id="rect3336" width="285.714" height="122.857" x="105.714" y="403.791" ry="6"/><rect style="fill:#fff;fill-opacity:1;stroke:#446cb3;stroke-width:1;stroke-miterlimit:4;stroke-dasharray:none;stroke-opacity:1" id="rect3338" width="16.162" height="93.944" x="391.465" y="416.976"/><circle style="fill:#446cb3;fill-opacity:1;stroke:#446cb3;stroke-width:1;stroke-miterlimit:4;stroke-dasharray:none;stroke-opacity:1" id="path4142" cx="246.429" cy="462.362" r="40"/><circle id="circle4144" cx="125.714" cy="463.791" r="14.603" style="fill:#fff;fill-opacity:1;stroke:#446cb3;stroke-width:1;stroke-miterlimit:4;stroke-dasharray:none;stroke-opacity:1"/><rect style="fill:#f9bf3b;fill-opacity:.49704147;stroke:#f9bf3b;stroke-width:1.22285771;stroke-miterlimit:4;stroke-dasharray:none;stroke-opacity:1" id="rect4146" width="62.991" height="14.471" x="408.861" y="428.802"/><rect id="rect4148" width="62.991" height="14.471" x="408.861" y="484.958" style="fill:#f9bf3b;fill-opacity:.49704147;stroke:#f9bf3b;stroke-width:1.22285771;stroke-miterlimit:4;stroke-dasharray:none;stroke-opacity:1"/><rect id="rect4150" width="48.493" height="14.615" x="408.789" y="447.653" style="fill:#f9bf3b;fill-opacity:.49704147;stroke:#f9bf3b;stroke-width:1.07828617;stroke-miterlimit:4;stroke-dasharray:none;stroke-opacity:1"/><rect style="fill:#f9bf3b;fill-opacity:.49704147;stroke:#f9bf3b;stroke-width:1.07828617;stroke-miterlimit:4;stroke-dasharray:none;stroke-opacity:1" id="rect4152" width="48.493" height="14.615" x="408.789" y="466.106"/><rect id="rect4140" width="77.11" height="93.943" x="407.784" y="417.011" style="fill:none;fill-opacity:1;stroke:#446cb3;stroke-width:1;stroke-miterlimit:4;stroke-dasharray:none;stroke-opacity:1"/><path style="fill:#fff;fill-opacity:1;stroke:#446cb3;stroke-width:.69124842;stroke-miterlimit:4;stroke-dasharray:none;stroke-opacity:1" id="circle4154" d="m 236.03445,451.28886 a 10.094421,10.094421 0 0 0 -10.09367,10.09367 10.094421,10.094421 0 0 0 10.09367,10.09368 10.094421,10.094421 0 0 0 10.09622,-10.09368 10.094421,10.094421 0 0 0 -10.09622,-10.09367 z m 0,3.72928 a 6.3652119,6.3652119 0 0 1 6.36694,6.36439 6.3652119,6.3652119 0 0 1 -6.36694,6.3644 6.3652119,6.3652119 0 0 1 -6.36439,-6.3644 6.3652119,6.3652119 0 0 1 6.36439,-6.36439 z"/><rect style="fill:#fff;fill-opacity:1;stroke:none;stroke-width:1;stroke-miterlimit:4;stroke-dasharray:none;stroke-opacity:1" id="rect4156" width="25.987" height="3.939" x="245.102" y="459.194"/><rect style="fill:#fff;fill-opacity:1;stroke:none;stroke-width:1;stroke-miterlimit:4;stroke-dasharray:none;stroke-opacity:1" id="rect4158" width="2.669" height="5.463" x="266.719" y="462.841"/><rect id="rect4160" width="2.669" height="4.334" x="259.949" y="462.841" style="fill:#fff;fill-opacity:1;stroke:none;stroke-width:1;stroke-miterlimit:4;stroke-dasharray:none;stroke-opacity:1"/><circle id="circle4155" cx="246.429" cy="462.362" r="40" style="fill:none;fill-opacity:1;stroke:#446cb3;stroke-width:1;stroke-miterlimit:4;stroke-dasharray:none;stroke-opacity:1"><animate attributeName="r" attributeType="SVG" begin="0s" dur="1.5s" from="10%" repeatCount="indefinite" to="25%"/><animate attributeName="stroke-width" attributeType="CSS" begin="0s" dur="1.5s" from="1%" repeatCount="indefinite" to="0%"/><animate attributeName="opacity" attributeType="CSS" begin="0s" dur="1.5s" from="1" repeatCount="indefinite" to="0"/></circle></g></svg>